<?xml version="1.0" standalone="no"?>
<!DOCTYPE svg PUBLIC "-//W3C//DTD SVG 20010904//EN"
 "http://www.w3.org/TR/2001/REC-SVG-20010904/DTD/svg10.dtd">
<svg version="1.0" xmlns="http://www.w3.org/2000/svg"
 width="420.000000pt" height="420.000000pt" viewBox="0 0 420.000000 420.000000"
 preserveAspectRatio="xMidYMid meet">
<metadata>
Created by potrace 1.14, written by Peter Selinger 2001-2017
</metadata>
<g transform="translate(0.000000,420.000000) scale(0.100000,-0.100000)"
fill="#000000" stroke="none">
<path d="M571 4189 c-101 -20 -214 -71 -301 -137 -123 -93 -222 -251 -255
-409 -21 -99 -21 -2987 0 -3078 37 -162 96 -270 205 -374 81 -78 242 -162 342
-179 24 -4 720 -7 1548 -7 1389 0 1510 1 1567 17 253 70 450 274 509 528 13
54 15 3014 3 3080 -23 118 -95 259 -181 351 -42 45 -122 109 -136 109 -6 0
-12 4 -14 8 -6 14 -122 64 -193 82 -66 17 -156 18 -1560 18 -820 0 -1510 -4
-1534 -9z m2397 -790 c106 -34 174 -125 178 -240 2 -51 -2 -76 -20 -115 -35
-75 -105 -134 -179 -150 -12 -3 -452 -5 -978 -6 -750 0 -965 2 -995 12 -115
38 -177 123 -181 245 -1 57 3 79 23 119 43 85 112 133 209 145 28 3 468 5 978
4 687 -1 938 -5 965 -14z m269 -1053 c61 -20 122 -77 153 -143 19 -40 22 -59
17 -118 -6 -93 -34 -145 -107 -197 -73 -53 -37 -51 -1190 -51 -591 0 -1093 3
-1115 7 -22 4 -58 19 -80 33 -211 137 -145 446 104 482 24 3 522 6 1105 5 970
-1 1066 -2 1113 -18z m-799 -1045 c103 -28 184 -137 185 -249 1 -114 -81 -224
-187 -253 -41 -11 -1394 -16 -1445 -5 -78 17 -160 91 -186 168 -55 161 45 322
214 347 80 11 1373 4 1419 -8z"/>
</g>
</svg>
