<svg width="72" height="72" viewBox="0 0 72 72" fill="none" xmlns="http://www.w3.org/2000/svg"><path fill-rule="evenodd" clip-rule="evenodd" d="M12 0C5.373 0 0 5.373 0 12v48c0 6.627 5.373 12 12 12h48c6.627 0 12-5.373 12-12V12c0-6.627-5.373-12-12-12H12zm6 13.5a4.5 4.5 0 1 0 0 9h31.5a4.5 4.5 0 1 0 0-9H18zM13.5 36a4.5 4.5 0 0 1 4.5-4.5h36a4.5 4.5 0 1 1 0 9H18a4.5 4.5 0 0 1-4.5-4.5zM18 49.5a4.5 4.5 0 1 0 0 9h22.5a4.5 4.5 0 1 0 0-9H18z" fill="url(#a)"/><defs><linearGradient id="a" x1="9.5" y1="7" x2="63.5" y2="72" gradientUnits="userSpaceOnUse"><stop stop-color="#DE8BFD"/><stop offset="1" stop-color="#7F28EE"/></linearGradient></defs></svg>